<svg xmlns="http://www.w3.org/2000/svg" width="17" height="17">
    <path fill="#67777B" fill-rule="evenodd" d="M15.807 4.239l-3.021-3.052a.798.798 0 0 0-1.135-.001L9.81 3.043l4.156 4.198 1.842-1.857a.815.815 0 0 0-.001-1.145zm-2.178-.852l-1.163-1.174c-.122-.123-.348-.092-.467.027l-.797.804-.358-.362.797-.804c.313-.315.86-.333 1.173-.017l1.163 1.175-.348.351zM8.397 4.468l-6.255 6.308-1.371 5.563 5.527-1.366 6.255-6.307-4.156-4.198zM2.491 15.322l-.717-.682.737-3.533h.675l5.57-5.617.347.352-5.245 5.29.397 1.736 1.692.373 5.245-5.289.348.351-5.565 5.613.007.695-3.491.711zM9.452 3.405l-.665.67 4.156 4.198.665-.671-4.156-4.197z"/>
</svg>
