<svg xmlns="http://www.w3.org/2000/svg" width="11" height="11">
    <path fill="#67777B" fill-rule="evenodd" d="M7.65 2.833v2.739c0 .447.044.762.13.941.086.18.229.269.431.269.301 0 .536-.183.706-.55.168-.366.252-.972.252-1.815 0-1.005-.282-1.788-.846-2.349-.563-.561-1.398-.842-2.504-.842-.761 0-1.42.168-1.976.502a3.232 3.232 0 0 0-1.271 1.396c-.292.598-.437 1.286-.437 2.063 0 .792.142 1.482.426 2.069a3.069 3.069 0 0 0 1.255 1.358c.552.32 1.224.479 2.014.479.359 0 .723-.037 1.093-.111.37-.073.706-.165 1.007-.274l.378 1.1a6.928 6.928 0 0 1-2.489.462c-1.012 0-1.905-.207-2.676-.621a4.34 4.34 0 0 1-1.789-1.772c-.42-.766-.63-1.66-.63-2.679 0-.975.217-1.854.652-2.635A4.72 4.72 0 0 1 3.191.726C3.966.282 4.842.061 5.819.061c.977 0 1.824.199 2.542.599.719.4 1.266.93 1.643 1.59a4.25 4.25 0 0 1 .566 2.145c0 .653-.094 1.236-.28 1.749-.187.514-.453.917-.797 1.21a1.832 1.832 0 0 1-1.228.441c-.396 0-.713-.113-.954-.336a1.485 1.485 0 0 1-.458-.786 1.957 1.957 0 0 1-.603.78c-.259.198-.575.298-.948.298-.632 0-1.113-.224-1.443-.671-.331-.447-.496-1.042-.496-1.783 0-.917.219-1.638.658-2.162.437-.524 1.04-.786 1.809-.786.632 0 1.239.161 1.82.484zM6.347 6.089V3.471a1.451 1.451 0 0 0-.56-.121c-.338 0-.595.154-.77.462-.176.308-.264.803-.264 1.485 0 .513.059.884.177 1.111a.598.598 0 0 0 .566.342c.388 0 .672-.221.851-.661z"/>
</svg>
