<svg xmlns="http://www.w3.org/2000/svg" width="31" height="28">
    <path fill="#FBFAFC" fill-rule="evenodd" d="M30.301 2.206c0-.444-.168-.849-.485-1.172a1.596 1.596 0 0 0-1.152-.487H2.356c-.439 0-.838.169-1.153.489-.316.32-.483.725-.483 1.17v21.141c0 .479.162.908.47 1.242.318.348.72.531 1.166.531h7.814c.439 0 .838-.17 1.154-.49.315-.32.482-.724.482-1.169 0-.444-.168-.849-.484-1.172a1.596 1.596 0 0 0-1.152-.487H4.049V8.993h22.922v12.809h-6.008a1.59 1.59 0 0 0-1.154.489c-.316.32-.483.725-.483 1.17 0 .447.167.85.481 1.168.316.321.715.491 1.156.491h7.701c.445 0 .847-.183 1.164-.528a1.81 1.81 0 0 0 .473-1.245V2.206zM6.341 4.327V5.96H4.049V3.921h2.292v.406zm5.003 0V5.96H9.052V3.921H11.344v.406zm5.003 0V5.96h-2.292V3.921h2.292v.406zm10.624 0V5.96h-7.913V3.921h7.913v.406zM22.37 19.815a1.545 1.545 0 0 1-1.126.461c-.383 0-.763-.14-1.129-.414l-.063-.056-2.242-2.283-.683-.695v8.778c0 .444-.167.848-.48 1.168a1.605 1.605 0 0 1-2.311.002 1.639 1.639 0 0 1-.482-1.17v-8.782l-.683.691-2.298 2.328c-.373.328-.761.494-1.153.494s-.78-.167-1.153-.495l-.055-.055c-.659-.768-.656-1.58-.002-2.338l.029-.031 5.821-5.841a1.744 1.744 0 0 1 1.15-.431c.439 0 .828.159 1.126.46l5.733 5.813c.762.773.762 1.624.001 2.396z"/>
</svg>
