<svg xmlns="http://www.w3.org/2000/svg" width="11" height="11">
    <path fill="#67777B" fill-rule="evenodd" d="M5.647.166C2.746.166.393 2.568.393 5.532c0 2.963 2.353 5.365 5.254 5.365 2.902 0 5.253-2.402 5.253-5.365C10.9 2.568 8.549.166 5.647.166zM9.844 4.75H8.049c-.087-1.303-.384-2.443-.817-3.264A4.35 4.35 0 0 1 9.844 4.75zm-2.738.782c0 2.835-1.036 4.365-1.459 4.365-.423 0-1.459-1.53-1.459-4.365l.001-.01h2.916l.001.01zM4.224 4.75c.168-2.327 1.041-3.583 1.423-3.583.382 0 1.255 1.256 1.424 3.583H4.224zm-.162-3.264c-.433.821-.73 1.961-.817 3.264H1.45a4.35 4.35 0 0 1 2.612-3.264zM1.373 5.532l.001-.01h1.835v.01c0 1.624.335 3.062.853 4.046a4.365 4.365 0 0 1-2.689-4.046zm5.859 4.046c.518-.984.853-2.422.853-4.046l-.001-.01H9.92l.001.01a4.365 4.365 0 0 1-2.689 4.046z"/>
</svg>
