<svg xmlns="http://www.w3.org/2000/svg" viewBox="0 0 57 57" width="512" height="512"><path d="M22.66 0H3.34A3.343 3.343 0 0 0 0 3.34v19.32A3.343 3.343 0 0 0 3.34 26h19.32A3.343 3.343 0 0 0 26 22.66V3.34A3.343 3.343 0 0 0 22.66 0zm10.68 26h19.32A3.343 3.343 0 0 0 56 22.66V3.34A3.343 3.343 0 0 0 52.66 0H33.34A3.343 3.343 0 0 0 30 3.34v19.32A3.343 3.343 0 0 0 33.34 26zm-10.68 4H3.34A3.343 3.343 0 0 0 0 33.34v19.32A3.343 3.343 0 0 0 3.34 56h19.32A3.343 3.343 0 0 0 26 52.66V33.34A3.343 3.343 0 0 0 22.66 30zM55 41H45V31a2 2 0 0 0-4 0v10H31a2 2 0 0 0 0 4h10v10a2 2 0 0 0 4 0V45h10a2 2 0 0 0 0-4z" fill="#67777b"/></svg>