<svg xmlns="http://www.w3.org/2000/svg" width="512" height="512" viewBox="0 0 511.63 511.631"><path d="M496.5 233.842c-30.841-76.706-114.112-115.06-249.823-115.06h-63.953V45.693c0-4.952-1.809-9.235-5.424-12.85-3.617-3.617-7.896-5.426-12.847-5.426-4.952 0-9.235 1.809-12.85 5.426L5.424 179.021C1.809 182.641 0 186.922 0 191.871c0 4.948 1.809 9.229 5.424 12.847L151.604 350.9c3.619 3.613 7.902 5.428 12.85 5.428 4.947 0 9.229-1.814 12.847-5.428 3.616-3.614 5.424-7.898 5.424-12.848v-73.094h63.953c18.649 0 35.349.568 50.099 1.708a361.232 361.232 0 0 1 43.968 6.143c14.564 2.95 27.224 6.991 37.979 12.135 10.753 5.144 20.794 11.756 30.122 19.842 9.329 8.094 16.943 17.7 22.847 28.839 5.896 11.136 10.513 24.311 13.846 39.539 3.326 15.229 4.997 32.456 4.997 51.675 0 10.466-.479 22.176-1.428 35.118 0 1.137-.236 3.375-.715 6.708-.473 3.333-.712 5.852-.712 7.562 0 2.851.808 5.232 2.423 7.136 1.622 1.902 3.86 2.851 6.714 2.851 3.046 0 5.708-1.615 7.994-4.853 1.328-1.711 2.561-3.806 3.71-6.283a503.014 503.014 0 0 0 3.854-8.562 641.239 641.239 0 0 0 2.998-6.848c24.17-54.238 36.258-97.158 36.258-128.756-.002-37.873-5.043-69.568-15.132-95.07z" fill="#394649"/></svg>