<svg xmlns="http://www.w3.org/2000/svg" viewBox="0 0 510.8 510.8" width="512" height="512"><g fill="#67777b"><path d="M465.099 178.447l30.032-11.024a255.285 255.285 0 0 0-13.888-31.152l-28.304 14.944a224.691 224.691 0 0 1 12.16 27.232zm-1.76-71.184a258.95 258.95 0 0 0-21.6-26.368l-23.36 21.856a226.154 226.154 0 0 1 18.912 23.104l26.048-18.592z"/><path d="M504.731 200.079v.08l-31.248 6.928c26.89 120.808-49.245 240.542-170.053 267.432S62.888 425.274 35.998 304.465C9.107 183.657 85.243 63.924 206.051 37.033a224.095 224.095 0 0 1 190.536 45.253l20.272-24.768C307.572-31.651 146.691-15.343 57.522 93.944S-15.34 364.111 93.946 453.281s270.168 72.862 359.337-36.425a255.388 255.388 0 0 0 51.448-216.777z"/><path d="M143.195 266.687l111.6 161.2 111.6-161.2-111.6-186.016-111.6 186.016zm111.6 104.976l-46.96-67.888 46.96 20.944 46.96-20.944-46.96 67.888zm0-81.968l-69.552-30.912 69.552-115.904 69.552 115.904-69.552 30.912z"/></g></svg>