<svg xmlns="http://www.w3.org/2000/svg" viewBox="0 0 330 330" width="512" height="512"><path d="M315 75H51.213l49.393-49.394c5.858-5.857 5.858-15.355 0-21.213-5.857-5.858-15.355-5.858-21.213 0l-75 75c-5.858 5.857-5.858 15.355 0 21.213l75 75A14.954 14.954 0 0 0 90 180a14.95 14.95 0 0 0 10.606-4.394c5.858-5.857 5.858-15.355 0-21.213L51.213 105H315c8.284 0 15-6.716 15-15s-6.716-15-15-15zm-64.394 79.393c-5.857-5.857-15.355-5.857-21.213 0-5.858 5.857-5.858 15.355 0 21.213L278.787 225H15c-8.284 0-15 6.716-15 15 0 8.284 6.716 15 15 15h263.787l-49.393 49.394c-5.858 5.857-5.858 15.355 0 21.213A14.953 14.953 0 0 0 240 330a14.95 14.95 0 0 0 10.606-4.394l75-75c5.858-5.857 5.858-15.355 0-21.213l-75-75z" fill="#FFF"/></svg>