<svg xmlns="http://www.w3.org/2000/svg" width="16" height="16">
    <path fill="#67777B" fill-rule="evenodd" d="M15.386 3.766L12.365.715A.797.797 0 0 0 11.23.714L9.389 2.571l4.156 4.197 1.841-1.857a.815.815 0 0 0 0-1.145zm-2.179-.852L12.044 1.74c-.122-.123-.348-.092-.466.028l-.797.804-.359-.363.798-.804c.313-.315.859-.332 1.173-.016l1.162 1.174-.348.351zM7.975 3.995l-6.254 6.309L.35 15.867l5.527-1.366 6.255-6.308-4.157-4.198zM2.069 14.849l-.717-.682.738-3.533.675.001 5.569-5.617.348.352-5.245 5.29.397 1.735 1.691.374 5.246-5.29.348.352-5.566 5.613.007.695-3.491.71zM9.03 2.932l-.664.671L12.521 7.8l.665-.67L9.03 2.932z"/>
</svg>
