<svg width="179" height="40" viewBox="0 0 179 40" fill="none" xmlns="http://www.w3.org/2000/svg">
<mask id="mask0" mask-type="alpha" maskUnits="userSpaceOnUse" x="0" y="0" width="46" height="40">
<path d="M45.0851 18.766L34.9574 1.23404C34.5319 0.468085 33.7234 0 32.8298 0H12.5745C11.6809 0 10.8723 0.468085 10.4468 1.23404L0.319149 18.766C-0.106383 19.5319 -0.106383 20.4681 0.319149 21.234L10.4468 38.766C10.8723 39.5319 11.6809 40 12.5745 40H32.8298C33.7234 40 34.5319 39.5319 34.9574 38.766L45.0851 21.234C45.5106 20.4681 45.5106 19.5319 45.0851 18.766Z" fill="url(#paint0_linear)"/>
</mask>
<g mask="url(#mask0)">
<path fill-rule="evenodd" clip-rule="evenodd" d="M34.2344 0L34.2342 0.000324179L45.8085 20L34.2342 39.9997L34.2344 40H34.2341H11.1281L-0.403809 20H-0.403687L11.1281 0.000306188V0H11.1282H34.2341H34.2344Z" fill="url(#paint1_linear)"/>
</g>
<mask id="mask1" mask-type="alpha" maskUnits="userSpaceOnUse" x="0" y="0" width="46" height="40">
<path d="M45.0851 18.766L34.9574 1.23404C34.5319 0.468085 33.7234 0 32.8298 0H12.5745C11.6809 0 10.8723 0.468085 10.4468 1.23404L0.319149 18.766C-0.106383 19.5319 -0.106383 20.4681 0.319149 21.234L10.4468 38.766C10.8723 39.5319 11.6809 40 12.5745 40H32.8298C33.7234 40 34.5319 39.5319 34.9574 38.766L45.0851 21.234C45.5106 20.4681 45.5106 19.5319 45.0851 18.766Z" fill="url(#paint2_linear)"/>
</mask>
<g mask="url(#mask1)">
<path d="M28.4898 30V10L11.1281 20L28.4898 30Z" fill="url(#paint3_linear)"/>
<path d="M28.4894 30L34.2341 40L45.8085 20L28.4894 30Z" fill="url(#paint4_linear)"/>
<path d="M11.1281 0H34.2344L28.4898 10L11.1281 0Z" fill="url(#paint5_linear)"/>
<path d="M45.8085 20L34.2341 0L28.4894 10L45.8085 20Z" fill="url(#paint6_linear)"/>
<path d="M11.1281 40L28.4898 30L11.1281 20V40Z" fill="url(#paint7_linear)"/>
<path d="M-0.403809 20H11.1281V40L-0.403809 20Z" fill="url(#paint8_linear)"/>
<path d="M11.1282 0V20H-0.403687L11.1282 0Z" fill="url(#paint9_linear)"/>
<path d="M28.4898 10L11.1281 0V20L28.4898 10Z" fill="url(#paint10_linear)"/>
<path d="M28.4894 30L45.8085 20L28.4894 10V30Z" fill="url(#paint11_linear)"/>
<path d="M11.1281 40H34.2344L28.4898 30L11.1281 40Z" fill="url(#paint12_linear)"/>
</g>
<g clip-path="url(#clip0)">
<path d="M62.2137 28.7818V31.8909H61V23.5455H63.5376C64.0893 23.5455 64.5306 23.6 64.9719 23.7091C65.4133 23.8182 65.6891 24.0364 65.9649 24.2545C66.2408 24.4727 66.4063 24.7455 66.5718 25.0727C66.6821 25.4 66.7924 25.7273 66.7924 26.1636C66.7924 26.5455 66.7373 26.9273 66.5718 27.2545C66.4063 27.5818 66.2408 27.8545 65.9649 28.0727C65.6891 28.2909 65.3581 28.5091 64.9719 28.6182C64.5858 28.7273 64.1445 28.8364 63.5928 28.8364H62.2137V28.7818ZM62.2137 27.8545H63.5376C63.8686 27.8545 64.1445 27.8 64.3651 27.7455C64.641 27.6364 64.8616 27.5273 65.0271 27.3636C65.1926 27.2 65.3029 27.0364 65.4133 26.8182C65.5236 26.6 65.5236 26.3818 65.5236 26.1091C65.5236 25.8364 65.4684 25.6182 65.4133 25.4C65.3581 25.1818 65.1926 25.0182 65.0271 24.8545C64.8616 24.6909 64.641 24.5818 64.4203 24.5273C64.1996 24.4727 63.8686 24.4182 63.5376 24.4182H62.2137V27.8545Z" fill="white"/>
<path d="M71.2057 30.9091H74.8467V31.9455H69.9921V23.5455H71.2057V30.9091Z" fill="white"/>
<path d="M84.8869 31.8909H83.9491C83.8387 31.8909 83.7284 31.8909 83.6732 31.8364C83.6181 31.7818 83.5629 31.7273 83.5077 31.6182L82.7354 29.6545H78.9841L78.2118 31.6182C78.2118 31.6727 78.1566 31.7818 78.0463 31.8364C77.9911 31.8909 77.8808 31.9455 77.7705 31.9455H76.8326L80.1978 23.5455H81.4114L84.8869 31.8909ZM79.3703 28.7818H82.4596L81.1908 25.4545C81.1356 25.3455 81.0804 25.2364 81.0804 25.0727C81.0253 24.9091 80.9701 24.8 80.9701 24.6364C80.9149 24.8 80.8598 24.9636 80.8598 25.0727C80.8046 25.2364 80.7494 25.3455 80.7494 25.4545L79.3703 28.7818Z" fill="white"/>
<path d="M90.2931 28.6182V31.9455H89.0794V28.6182L85.9901 23.5455H87.0934C87.2038 23.5455 87.2589 23.5455 87.3693 23.6C87.4244 23.6545 87.4796 23.7091 87.5348 23.8182L89.4104 26.9818C89.4656 27.1455 89.5759 27.2545 89.6311 27.3636C89.6862 27.4727 89.7414 27.6364 89.7966 27.7455C89.8517 27.6364 89.9069 27.4727 89.9621 27.3636C90.0172 27.2545 90.0724 27.0909 90.1276 26.9818L91.8929 23.8182C91.948 23.7636 92.0032 23.7091 92.0584 23.6C92.1135 23.5455 92.2239 23.4909 92.3342 23.4909H93.4375L90.2931 28.6182Z" fill="white"/>
<path d="M100.775 29.4364C100.83 29.3273 100.885 29.2182 100.885 29.1091C100.94 29 100.995 28.8909 101.051 28.7818L103.864 23.7091C103.919 23.6 103.974 23.5455 104.03 23.5455C104.085 23.5455 104.195 23.4909 104.305 23.4909H105.188V31.8909H104.14V25.8909C104.14 25.7818 104.14 25.7273 104.14 25.6182C104.14 25.5091 104.14 25.4 104.14 25.3455L101.271 30.4727C101.216 30.5818 101.161 30.6364 101.106 30.6909C101.051 30.7455 100.94 30.7455 100.83 30.7455H100.664C100.444 30.7455 100.333 30.6364 100.223 30.4727L97.2993 25.2909C97.2993 25.4 97.2993 25.5091 97.2993 25.6182C97.2993 25.7273 97.2993 25.8364 97.2993 25.8909V31.9455H96.3063V23.5455H97.1889C97.2993 23.5455 97.3544 23.5455 97.4648 23.6C97.5199 23.6 97.5751 23.6545 97.6303 23.7636L100.499 28.8364C100.609 29 100.664 29.2182 100.775 29.4364Z" fill="white"/>
<path d="M116.111 31.8909H115.173C115.063 31.8909 114.952 31.8909 114.897 31.8364C114.842 31.7818 114.787 31.7273 114.732 31.6182L113.959 29.6545H110.208L109.436 31.6182C109.436 31.6727 109.38 31.7818 109.27 31.8364C109.215 31.8909 109.105 31.9455 108.994 31.9455H108.057L111.422 23.5455H112.635L116.111 31.8909ZM110.594 28.7818H113.683L112.415 25.4545C112.359 25.3455 112.304 25.2364 112.304 25.0727C112.249 24.9091 112.194 24.8 112.194 24.6364C112.139 24.8 112.084 24.9636 112.084 25.0727C112.028 25.2364 111.973 25.3455 111.973 25.4545L110.594 28.7818Z" fill="white"/>
<path d="M120.303 28.4545V31.8909H119.09V23.5455H121.517C122.069 23.5455 122.51 23.6 122.951 23.7091C123.338 23.8182 123.668 23.9818 123.944 24.2C124.22 24.4182 124.386 24.6364 124.496 24.9636C124.606 25.2364 124.661 25.5636 124.661 25.9455C124.661 26.2182 124.606 26.5455 124.496 26.7636C124.386 27.0364 124.275 27.2545 124.11 27.4727C123.944 27.6909 123.724 27.8545 123.448 28.0182C123.172 28.1818 122.896 28.2909 122.565 28.3455C122.731 28.4545 122.841 28.5636 122.951 28.7273L125.379 32H124.275C124.055 32 123.889 31.8909 123.779 31.7273L121.683 28.7273C121.627 28.6182 121.517 28.5636 121.462 28.5091C121.407 28.4545 121.241 28.4545 121.131 28.4545H120.303ZM120.303 27.5818H121.462C121.793 27.5818 122.069 27.5273 122.345 27.4727C122.62 27.4182 122.786 27.3091 122.951 27.1455C123.117 26.9818 123.227 26.8182 123.338 26.6545C123.448 26.4364 123.448 26.2182 123.448 26C123.448 25.5091 123.282 25.1273 122.951 24.9091C122.62 24.6909 122.124 24.5273 121.517 24.5273H120.303V27.5818Z" fill="white"/>
<path d="M129.571 27.1455H130.013C130.178 27.1455 130.289 27.1455 130.399 27.0909C130.509 27.0364 130.564 26.9818 130.675 26.9273L133.433 23.8182C133.488 23.7091 133.598 23.6545 133.709 23.6C133.819 23.5455 133.929 23.5455 134.04 23.5455H135.088L131.943 27.1455C131.778 27.3091 131.612 27.4727 131.502 27.5273C131.723 27.5818 131.888 27.7455 132.054 27.9636L135.364 31.9455H134.316C134.15 31.9455 134.04 31.9455 133.985 31.8909C133.929 31.8364 133.819 31.7818 133.764 31.7273L130.95 28.4545C130.895 28.3455 130.785 28.2909 130.675 28.2364C130.564 28.1818 130.454 28.1818 130.233 28.1818H129.737V32H128.523V23.5455H129.737V27.1455H129.571Z" fill="white"/>
<path d="M143.363 23.5455V24.5273H139.336V27.2545H142.59V28.1818H139.336V30.9091H143.363V31.8909H138.122V23.5455H143.363Z" fill="white"/>
<path d="M152.575 23.5455V24.5818H149.872V31.9455H148.659V24.5273H145.956V23.4909H152.575V23.5455Z" fill="white"/>
<path d="M162.616 23.4364C163.002 23.4364 163.333 23.4909 163.609 23.6C163.885 23.7091 164.216 23.8727 164.436 24.0364C164.657 24.2545 164.822 24.4727 164.988 24.8C165.098 25.0727 165.208 25.4 165.208 25.7818C165.208 26.1091 165.153 26.3818 165.043 26.6545C164.933 26.9273 164.822 27.2 164.657 27.4182C164.491 27.6364 164.326 27.9091 164.105 28.1273C163.885 28.3455 163.664 28.5636 163.443 28.8364L161.237 31.0182C161.402 30.9636 161.568 30.9636 161.733 30.9091C161.899 30.8545 162.064 30.8545 162.23 30.8545H164.988C165.098 30.8545 165.208 30.9091 165.264 30.9636C165.319 31.0182 165.374 31.1273 165.374 31.2364V31.8909H159.692V31.5091C159.692 31.4545 159.692 31.3455 159.747 31.2909C159.802 31.1818 159.857 31.1273 159.913 31.0727L162.616 28.4C162.836 28.1818 163.057 27.9636 163.223 27.7455C163.388 27.5273 163.554 27.3091 163.664 27.1455C163.774 26.9273 163.885 26.7091 163.94 26.4909C163.995 26.2727 164.05 26.0545 164.05 25.8364C164.05 25.6182 163.995 25.4 163.94 25.2364C163.885 25.0727 163.774 24.9091 163.609 24.8C163.443 24.6909 163.333 24.5818 163.112 24.5273C162.892 24.4727 162.726 24.3636 162.505 24.3636C162.285 24.3636 162.119 24.4182 161.954 24.4727C161.788 24.5273 161.623 24.6364 161.512 24.7455C161.402 24.8545 161.237 24.9636 161.181 25.1273C161.071 25.2909 161.016 25.4545 160.961 25.6182C160.906 25.7818 160.85 25.8364 160.74 25.8909C160.63 25.9455 160.519 25.9455 160.409 25.9455L159.802 25.8364C159.857 25.4545 159.968 25.1273 160.133 24.8C160.299 24.5273 160.519 24.2545 160.74 24.0364C160.961 23.8182 161.292 23.7091 161.568 23.6C161.899 23.4909 162.23 23.4364 162.616 23.4364Z" fill="white"/>
<path d="M168.463 31.2364C168.463 31.1273 168.463 31.0182 168.518 30.9636C168.574 30.8545 168.629 30.8 168.684 30.7455C168.739 30.6909 168.849 30.6364 168.905 30.5818C169.015 30.5273 169.125 30.5273 169.18 30.5273C169.291 30.5273 169.401 30.5273 169.456 30.5818C169.567 30.6364 169.622 30.6909 169.677 30.7455C169.732 30.8 169.787 30.9091 169.842 30.9636C169.898 31.0182 169.898 31.1273 169.898 31.2364C169.898 31.3455 169.898 31.4545 169.842 31.5636C169.787 31.6727 169.732 31.7273 169.677 31.7818C169.622 31.8364 169.511 31.8909 169.456 31.9455C169.346 32 169.291 32 169.18 32C169.07 32 168.96 32 168.905 31.9455C168.794 31.8909 168.739 31.8364 168.684 31.7818C168.629 31.7273 168.574 31.6182 168.518 31.5636C168.463 31.4545 168.463 31.3455 168.463 31.2364Z" fill="white"/>
<path d="M179 27.6909C179 28.4 178.945 29.0545 178.779 29.6C178.614 30.1455 178.393 30.5818 178.117 30.9636C177.842 31.3455 177.511 31.5636 177.124 31.7273C176.738 31.8909 176.297 32 175.911 32C175.525 32 175.083 31.8909 174.697 31.7273C174.311 31.5636 173.98 31.2909 173.704 30.9636C173.428 30.6364 173.208 30.1455 173.042 29.6C172.877 29.0545 172.821 28.4 172.821 27.6909C172.821 26.9818 172.877 26.3273 173.042 25.7818C173.208 25.2364 173.428 24.8 173.704 24.4182C173.98 24.0909 174.311 23.8182 174.697 23.6545C175.083 23.4909 175.469 23.3818 175.911 23.3818C176.352 23.3818 176.738 23.4909 177.124 23.6545C177.511 23.8182 177.842 24.0909 178.117 24.4182C178.393 24.7455 178.614 25.2364 178.779 25.7818C178.89 26.3273 179 26.9818 179 27.6909ZM177.786 27.6909C177.786 27.0364 177.731 26.5455 177.621 26.1091C177.511 25.6727 177.345 25.3455 177.18 25.0727C177.014 24.8 176.793 24.6364 176.573 24.5273C176.352 24.4182 176.076 24.3636 175.856 24.3636C175.58 24.3636 175.359 24.4182 175.138 24.5273C174.918 24.6364 174.697 24.8 174.532 25.0727C174.366 25.3455 174.201 25.6727 174.09 26.1091C173.98 26.5455 173.925 27.0909 173.925 27.6909C173.925 28.3455 173.98 28.8364 174.09 29.2727C174.201 29.7091 174.311 30.0364 174.532 30.3091C174.697 30.5818 174.918 30.7455 175.138 30.8545C175.359 30.9636 175.635 31.0182 175.856 31.0182C176.131 31.0182 176.352 30.9636 176.573 30.8545C176.793 30.7455 177.014 30.5818 177.18 30.3091C177.345 30.0364 177.511 29.7091 177.621 29.2727C177.786 28.8909 177.786 28.3455 177.786 27.6909Z" fill="white"/>
<path d="M68.3922 12.3091C68.3922 12.9636 68.2819 13.5091 68.0612 14C67.8406 14.4909 67.5648 14.9818 67.1786 15.3091C66.7924 15.6909 66.3511 15.9636 65.8546 16.1818C65.3581 16.4 64.7513 16.5091 64.1445 16.5091H61V8.10909H64.1996C64.8065 8.10909 65.4133 8.21818 65.9098 8.43636C66.4063 8.65454 66.8476 8.92727 67.2338 9.30909C67.6199 9.63636 67.8957 10.0727 68.0612 10.5636C68.2819 11.1091 68.3922 11.6545 68.3922 12.3091ZM67.1234 12.3091C67.1234 11.8182 67.0683 11.3818 66.9028 10.9455C66.7924 10.5091 66.5718 10.1818 66.3511 9.90909C66.1304 9.63636 65.7443 9.41818 65.4133 9.30909C65.0823 9.2 64.641 9.09091 64.1996 9.09091H62.2137V15.5273H64.1445C64.5858 15.5273 65.0271 15.4727 65.3581 15.3091C65.7443 15.1455 66.0201 14.9273 66.2959 14.6545C66.5718 14.3818 66.7373 14.0545 66.9028 13.6182C67.0683 13.2364 67.1234 12.8 67.1234 12.3091Z" fill="white"/>
<path d="M78.5979 16.5091H77.6601C77.5498 16.5091 77.4394 16.5091 77.3843 16.4545C77.3291 16.4 77.2739 16.3455 77.2188 16.2364L76.4465 14.2182H72.6952L71.9229 16.1818C71.9229 16.2364 71.8677 16.3455 71.7574 16.4C71.7022 16.4545 71.5919 16.5091 71.4815 16.5091H70.5437L73.9088 8.10909H75.1225L78.5979 16.5091ZM73.0262 13.3455H76.1155L74.8466 10.0182C74.7915 9.90909 74.7363 9.8 74.7363 9.63636C74.6811 9.47273 74.626 9.36363 74.626 9.2C74.5708 9.36363 74.5157 9.52727 74.5157 9.63636C74.4605 9.8 74.4053 9.90909 74.4053 10.0182L73.0262 13.3455Z" fill="white"/>
<path d="M89.1898 12.3091C89.1898 12.9636 89.0794 13.5091 88.8588 14.0545C88.6381 14.6 88.3623 15.0364 88.0313 15.4182C87.6451 15.8 87.2038 16.0727 86.7073 16.2909C86.2108 16.5091 85.604 16.6182 84.9972 16.6182C84.3903 16.6182 83.7835 16.5091 83.287 16.2909C82.7905 16.0727 82.3492 15.8 81.963 15.4182C81.5769 15.0364 81.3011 14.6 81.0804 14.0545C80.8597 13.5091 80.7494 12.9636 80.7494 12.3091C80.7494 11.7091 80.8597 11.1091 81.0804 10.5636C81.3011 10.0182 81.5769 9.58182 81.963 9.2C82.3492 8.81818 82.7905 8.54545 83.287 8.32727C83.7835 8.10909 84.3903 8 84.9972 8C85.604 8 86.2108 8.10909 86.7073 8.32727C87.2038 8.54545 87.6451 8.81818 88.0313 9.2C88.4175 9.58182 88.6933 10.0182 88.8588 10.5636C89.0243 11.1091 89.1898 11.6545 89.1898 12.3091ZM87.921 12.3091C87.921 11.8182 87.8658 11.3273 87.7003 10.9455C87.5348 10.5636 87.3693 10.1818 87.0935 9.90909C86.8176 9.63636 86.5418 9.41818 86.1557 9.25455C85.7695 9.09091 85.3833 9.03636 84.942 9.03636C84.5007 9.03636 84.0593 9.09091 83.7284 9.25455C83.3974 9.41818 83.0664 9.63636 82.8457 9.90909C82.5699 10.1818 82.4044 10.5091 82.2389 10.9455C82.0734 11.3273 82.0182 11.8182 82.0182 12.3091C82.0182 12.8 82.0734 13.2909 82.2389 13.6727C82.4044 14.0545 82.5699 14.4364 82.8457 14.7091C83.1215 14.9818 83.3974 15.2 83.7835 15.3636C84.1697 15.5273 84.5558 15.5818 84.9972 15.5818C85.4385 15.5818 85.8798 15.5273 86.2108 15.3636C86.5418 15.2 86.8728 14.9818 87.1486 14.7091C87.4245 14.4364 87.59 14.1091 87.7555 13.6727C87.8658 13.2364 87.921 12.8 87.921 12.3091Z" fill="white"/>
</g>
<defs>
<linearGradient id="paint0_linear" x1="-0.0244255" y1="20.0055" x2="45.4167" y2="20.0055" gradientUnits="userSpaceOnUse">
<stop offset="0.00558659" stop-color="#01919D"/>
<stop offset="1" stop-color="white"/>
</linearGradient>
<linearGradient id="paint1_linear" x1="12" y1="2.23978e-07" x2="33" y2="40" gradientUnits="userSpaceOnUse">
<stop offset="0.00558659" stop-color="#11E0DC"/>
<stop offset="1" stop-color="#005C9A"/>
</linearGradient>
<linearGradient id="paint2_linear" x1="-0.0244255" y1="20.0055" x2="45.4167" y2="20.0055" gradientUnits="userSpaceOnUse">
<stop offset="0.00558659" stop-color="#01919D"/>
<stop offset="1" stop-color="white"/>
</linearGradient>
<linearGradient id="paint3_linear" x1="28.5696" y1="11.272" x2="20.0429" y2="24.6401" gradientUnits="userSpaceOnUse">
<stop stop-color="#15E1D6"/>
<stop offset="1" stop-color="#11A9D7"/>
</linearGradient>
<linearGradient id="paint4_linear" x1="35.7961" y1="25.5104" x2="40.2763" y2="30.2795" gradientUnits="userSpaceOnUse">
<stop stop-color="#007FA6"/>
<stop offset="1" stop-color="#0088A5"/>
</linearGradient>
<linearGradient id="paint5_linear" x1="31.8629" y1="5.20077" x2="13.3643" y2="-2.12162" gradientUnits="userSpaceOnUse">
<stop offset="0.00558659" stop-color="#01B6AD"/>
<stop offset="1" stop-color="#01909D"/>
</linearGradient>
<linearGradient id="paint6_linear" x1="30.7519" y1="4.09106" x2="41.1574" y2="19.6993" gradientUnits="userSpaceOnUse">
<stop stop-color="#01D0BB"/>
<stop offset="1" stop-color="#01C6BE"/>
</linearGradient>
<linearGradient id="paint7_linear" x1="20.0654" y1="24.6143" x2="10.8161" y2="38.7773" gradientUnits="userSpaceOnUse">
<stop stop-color="#0B84BF"/>
<stop offset="0.9888" stop-color="#0872C7"/>
</linearGradient>
<linearGradient id="paint8_linear" x1="5.87479" y1="29.4478" x2="10.9812" y2="23.7633" gradientUnits="userSpaceOnUse">
<stop offset="0.0111732" stop-color="#0057B3"/>
<stop offset="1" stop-color="#004A96"/>
</linearGradient>
<linearGradient id="paint9_linear" x1="3.50563" y1="19.5226" x2="12.3214" y2="8.53902" gradientUnits="userSpaceOnUse">
<stop offset="0.0111732" stop-color="#0062C5"/>
<stop offset="1" stop-color="#006F90"/>
</linearGradient>
<linearGradient id="paint10_linear" x1="9.69822" y1="13.8122" x2="19.8146" y2="4.99642" gradientUnits="userSpaceOnUse">
<stop offset="0.0111732" stop-color="#12C6E3"/>
<stop offset="1" stop-color="#11EBDA"/>
</linearGradient>
<linearGradient id="paint11_linear" x1="27.668" y1="12.2354" x2="36.7727" y2="24.5196" gradientUnits="userSpaceOnUse">
<stop stop-color="#0CF3DD"/>
<stop offset="1" stop-color="#0AE1DE"/>
</linearGradient>
<linearGradient id="paint12_linear" x1="23.004" y1="30.7869" x2="22.7149" y2="39.4581" gradientUnits="userSpaceOnUse">
<stop offset="0.00558659" stop-color="#004D83"/>
<stop offset="1" stop-color="#005D9B"/>
</linearGradient>
<clipPath id="clip0">
<rect width="118" height="24" fill="white" transform="translate(61 8)"/>
</clipPath>
</defs>
</svg>
